<svg width="28" height="31" viewBox="0 0 28 31" fill="none" xmlns="http://www.w3.org/2000/svg">
<path d="M26.3441 -5.57446e-09H8.55849C7.64404 -5.57446e-09 6.90257 0.699969 6.90257 1.56324V19.944C6.15646 19.7456 5.34688 19.6904 4.50556 19.8249C2.11204 20.2078 0.253339 22.0954 0.0250159 24.3769C-0.280705 27.4314 2.256 30 5.42814 30C8.42614 30 10.8564 27.7057 10.8564 24.8755H10.8584V5.89018C10.8584 5.02691 11.5998 4.32694 12.5143 4.32694H22.3724C23.2869 4.32694 24.0283 5.02691 24.0283 5.89018V13.5496C23.3639 13.3754 22.6495 13.3144 21.9073 13.3999C19.4031 13.6881 17.4066 15.6152 17.1686 17.9862C16.8621 21.0411 19.3992 23.6104 22.5717 23.6104C25.3426 23.6104 27.6269 21.6501 27.9574 19.1187H28V1.56324C28 0.699969 27.2585 -5.57446e-09 26.3441 -5.57446e-09Z" transform="translate(0 0.625)" fill="white"/>
</svg>
