<svg width="11" height="15" viewBox="0 0 11 15" fill="none" xmlns="http://www.w3.org/2000/svg">
<path d="M2.72823 1.46609L0.226767 0.0218135C0.176416 -0.00727117 0.123133 -0.00727117 0.0726884 0.0218135C0.022244 0.0509447 0 0.104693 0 0.162909V3.05141C0 3.10958 0.022244 3.16338 0.0726419 3.19246C0.0978641 3.20703 0.121551 3.21429 0.149705 3.21429C0.177812 3.21429 0.203732 3.20703 0.228955 3.19246L2.72935 1.74823C2.77975 1.71915 2.81023 1.66535 2.81023 1.60718C2.81023 1.54897 2.77863 1.49522 2.72823 1.46609Z" fill="#FF2C43"/>
<path d="M0.358019 2.9307e-09H3.53837C3.73578 2.9307e-09 3.89639 0.160607 3.89639 0.356346V14.642C3.89639 14.8394 3.73578 15 3.53837 15H0.358019C0.160607 15 -3.24276e-09 14.8394 -3.24276e-09 14.642V0.356346C-3.24276e-09 0.160607 0.160607 2.9307e-09 0.358019 2.9307e-09Z" fill="#FF2C43"/>
<path d="M0.356346 2.9307e-09H3.53837C3.73411 2.9307e-09 3.89471 0.160607 3.89471 0.356346V14.642C3.89471 14.8394 3.73411 15 3.53837 15H0.356346C0.158934 15 -2.20839e-09 14.8394 -2.20839e-09 14.642V0.356346C-2.20839e-09 0.160607 0.158934 2.9307e-09 0.356346 2.9307e-09Z" transform="translate(6.64014)" fill="#FF2C43"/>
</svg>
