<svg width="50" height="70" viewBox="0 0 50 70" fill="none" xmlns="http://www.w3.org/2000/svg">
<path d="M1.67076 1.36766e-08H16.5124C17.4336 1.36766e-08 18.1831 0.749498 18.1831 1.66295V68.3292C18.1831 69.2505 17.4336 70 16.5124 70H1.67076C0.749498 70 -1.51329e-08 69.2505 -1.51329e-08 68.3292V1.66295C-1.51329e-08 0.749498 0.749498 1.36766e-08 1.67076 1.36766e-08Z" fill="#FFD775"/>
<path d="M1.66295 1.36766e-08H16.5124C17.4258 1.36766e-08 18.1753 0.749498 18.1753 1.66295V68.3292C18.1753 69.2505 17.4258 70 16.5124 70H1.66295C0.741693 70 -1.03058e-08 69.2505 -1.03058e-08 68.3292V1.66295C-1.03058e-08 0.749498 0.741693 1.36766e-08 1.66295 1.36766e-08Z" transform="translate(30.9871)" fill="#FFD775"/>
</svg>
