<svg width="18" height="18" viewBox="0 0 18 18" fill="none" xmlns="http://www.w3.org/2000/svg">
<g opacity="0.2" transform="translate(1 1)">
<path d="M15.7604 14.6156L12.7787 11.6606C15.0416 8.8386 14.8286 4.68552 12.2463 2.10316C10.8885 0.745424 9.10483 0 7.18802 0C5.27122 0 3.4609 0.745424 2.10316 2.10316C0.745424 3.4609 0 5.24459 0 7.18802C0 9.13145 0.745424 10.9151 2.10316 12.2729C3.4609 13.604 5.24459 14.376 7.18802 14.376C8.81198 14.376 10.4093 13.817 11.6606 12.8053L14.6156 15.7604C14.7754 15.9201 14.9617 16 15.1747 16C15.3877 16 15.6007 15.9201 15.7338 15.7604C16.0532 15.4409 16.0532 14.9351 15.7604 14.6156ZM12.7787 7.18802C12.7787 8.67887 12.193 10.0899 11.1281 11.1281C10.0632 12.1664 8.67887 12.7787 7.18802 12.7787C5.69717 12.7787 4.28619 12.193 3.24792 11.1281C2.20965 10.0632 1.59734 8.67887 1.59734 7.18802C1.59734 5.69717 2.18303 4.28619 3.24792 3.24792C4.31281 2.20965 5.67055 1.59734 7.18802 1.59734C8.67887 1.59734 10.0899 2.18303 11.1281 3.24792C12.1664 4.31281 12.7787 5.67055 12.7787 7.18802Z" fill="white"/>
<path d="M15.7604 14.6156L12.7787 11.6606C15.0416 8.8386 14.8286 4.68552 12.2463 2.10316C10.8885 0.745424 9.10483 0 7.18802 0C5.27122 0 3.4609 0.745424 2.10316 2.10316C0.745424 3.4609 0 5.24459 0 7.18802C0 9.13145 0.745424 10.9151 2.10316 12.2729C3.4609 13.604 5.24459 14.376 7.18802 14.376C8.81198 14.376 10.4093 13.817 11.6606 12.8053L14.6156 15.7604C14.7754 15.9201 14.9617 16 15.1747 16C15.3877 16 15.6007 15.9201 15.7338 15.7604C16.0532 15.4409 16.0532 14.9351 15.7604 14.6156ZM12.7787 7.18802C12.7787 8.67887 12.193 10.0899 11.1281 11.1281C10.0632 12.1664 8.67887 12.7787 7.18802 12.7787C5.69717 12.7787 4.28619 12.193 3.24792 11.1281C2.20965 10.0632 1.59734 8.67887 1.59734 7.18802C1.59734 5.69717 2.18303 4.28619 3.24792 3.24792C4.31281 2.20965 5.67055 1.59734 7.18802 1.59734C8.67887 1.59734 10.0899 2.18303 11.1281 3.24792C12.1664 4.31281 12.7787 5.67055 12.7787 7.18802Z" stroke="white"/>
</g>
</svg>
